/* XPM */
static char *_2b11d1e84bd4226ea44ff99418989dbo9a8q8BSntuuGzEW[] = {
/* columns rows colors chars-per-pixel */
"48 48 167 2 ",
"   c None",
".  c #0E1916",
"X  c #0F1A18",
"o  c #0C1715",
"O  c #121917",
"+  c #161B19",
"@  c #1D1D1C",
"#  c #251E23",
"$  c #2C1E2E",
"%  c #321E22",
"&  c #311E3B",
"*  c #272023",
"=  c #2A2024",
"-  c #352224",
";  c #3A2126",
":  c #352826",
">  c #3F252F",
",  c #3B2928",
"<  c #3F2530",
"1  c #482B2F",
"2  c #4B242D",
"3  c #52242E",
"4  c #452733",
"5  c #542633",
"6  c #5D2532",
"7  c #532939",
"8  c #4F3130",
"9  c #602632",
"0  c #6D2735",
"q  c #6D2836",
"w  c #792C3D",
"e  c #603737",
"r  c #603837",
"t  c #6E3039",
"y  c #6D3D3D",
"u  c #703E3E",
"i  c #3E1D4E",
"p  c #3F204F",
"a  c #3A2150",
"s  c #441E4F",
"d  c #48224A",
"f  c #572744",
"g  c #5F2C41",
"h  c #54204E",
"j  c #59204E",
"k  c #442250",
"l  c #4D2351",
"z  c #502351",
"x  c #5E2553",
"c  c #642D45",
"v  c #672D48",
"b  c #7C2B43",
"n  c #633444",
"m  c #73304C",
"M  c #652654",
"N  c #642D55",
"B  c #702452",
"V  c #742954",
"C  c #792956",
"Z  c #753055",
"A  c #7F3455",
"S  c #773058",
"D  c #783058",
"F  c #BB0E3F",
"G  c #AE1743",
"H  c #AF1844",
"J  c #A31A46",
"K  c #BD1341",
"L  c #B51A46",
"P  c #BF1C49",
"I  c #8C2A42",
"U  c #822F4C",
"Y  c #9D2E46",
"T  c #83324E",
"R  c #8B3948",
"E  c #813D42",
"W  c #8B2957",
"Q  c #8D2C58",
"!  c #942D59",
"~  c #9A2D59",
"^  c #972C55",
"/  c #8D375C",
"(  c #8E395D",
")  c #853455",
"_  c #953455",
"`  c #95345A",
"'  c #91395E",
"]  c #9F3B5E",
"[  c #A32F4A",
"{  c #AA2F4A",
"}  c #B9224C",
"|  c #AA304A",
" . c #AA3D4D",
".. c #A5355B",
"X. c #A9355A",
"o. c #B4335A",
"O. c #BC325C",
"+. c #B6385F",
"@. c #B03254",
"#. c #903960",
"$. c #C11945",
"%. c #C1224B",
"&. c #C3294D",
"*. c #C52654",
"=. c #C52A54",
"-. c #C92F55",
";. c #D12D55",
":. c #C53355",
">. c #CA3256",
",. c #C13258",
"<. c #CE3259",
"1. c #D2345B",
"2. c #DC365C",
"3. c #DF395E",
"4. c #E4365E",
"5. c #E9375F",
"6. c #E3385C",
"7. c #E83B5E",
"8. c #CB3760",
"9. c #CD3960",
"0. c #D43961",
"q. c #E23761",
"w. c #E43861",
"e. c #EC3962",
"r. c #FC3563",
"t. c #F43A62",
"y. c #FD3B65",
"u. c #FF3E69",
"i. c #814243",
"p. c #8D415E",
"a. c #9F4656",
"s. c #AA5554",
"d. c #AB4762",
"f. c #B45164",
"g. c #BC5768",
"h. c #BD5968",
"j. c #CF495E",
"k. c #CD4956",
"l. c #D2575A",
"z. c #D5615D",
"x. c #D34363",
"c. c #C05A6A",
"v. c #E24766",
"b. c #EB4063",
"n. c #E14A64",
"m. c #EF4E66",
"M. c #FB4366",
"N. c #F74C68",
"B. c #E85B68",
"V. c #FD516B",
"C. c #F8586C",
"Z. c #DF6368",
"A. c #DD6A69",
"S. c #DC716A",
"D. c #F5606B",
"F. c #FB606F",
"G. c #F96E6F",
"H. c #E56B71",
"J. c #FD6271",
"K. c #FB6D73",
"L. c #FB7575",
"P. c #FE7976",
"I. c #FF7B79",
"U. c #EBA078",
"Y. c #F8C884",
"T. c #FFE08B",
"R. c #FFEB8E",
/* pixels */
"                                                                                                ",
"                                                                                                ",
"                                                                                                ",
"                                                                                                ",
"                                                                                                ",
"                                                                                                ",
"                                                                                                ",
"                                                                                                ",
"          @ @ @       @ @                                             @ @       @ @ @           ",
"          + + +       + +                                             + +       + + +           ",
"          r n y     8 u y 8                                         8 u y 8     y y r           ",
"      @ @ s.I.A., O y L.L.y + @                                 @ + y L.L.y . , A.I.s.@ @       ",
"      @ @ s.I.A., . y L.L.y + @                                 @ + n P.L.y X , A.I.s.@ @       ",
"      @ @  .V.n.f & T V.V.t + @                                 @ + t V.V.T & f n.V. .@ @       ",
"      @ @ { y.w.M k W y.y.0 + @                                 @ + q y.r.Q s M q.u.{ @ @       ",
"      @ @ { y.q.C x ~ t.t.0 + @                                 @ + 0 t.t.~ x C q.y.{ @ @       ",
"      @ @ I 1.1.q.w.2.1.<.9 + @                                 @ @ 9 <.1.2.q.6.1.1.I @ @       ",
"      @ @ I <.<.y.y.5.>.>.9 + @                                 @ + 6 >.-.e.y.y.<.<.I @ @       ",
"      @ @ U o.O.4.5.1.o.o.5 + @                                 @ + 5 o.o.1.5.4.O.O.b @ @       ",
"      @ + t ' ` ,.>.o./ / 4 + @       @ @ @ @ @ @ @ @ @ @       @ + 4 / / o.<.,.` ' v @ @       ",
"      @ @ v / ` O.>.o.` / 1 + @       @ @ @ @ @ @ @ @ @ @       @ + 4 / ( o.>.,.` ( c @ @       ",
"          4 4 7 _ ....o.o.U v c # + e s.s.s.s.s.s.s.s.s.s.r + = g v T o.o.X..._ 7 1 4           ",
"          @ + = A ( ..>.>...' A # o y I.I.I.I.I.I.I.I.I.U.u o * ) #.X.>.>...#.A = + +           ",
"          @ + = m ) _ ,.O.X.] ' 1 : i.K.K.K.K.K.K.J.K.K.J.b % 2 ) ` ..,.,._ ) m = + @           ",
"                = = 7 ' ` 9.e.e.Z.A.B.M.M.M.M.M.M.M.M.M.M.7.2.2.:.,.o.` ` 7 = =                 ",
"                + + 4 / / 0.y.M.L.I.F.y.y.r.r.r.y.y.y.r.r.y.y.t.<.-.o.( #.4 + +                 ",
"                @ + 7 +.+.v.V.V.C.J.m.5.7.D.P.G.e.4.m.L.L.m.5.4.2.4.@.v v < + @                 ",
"                @ + 0 y.y.F.L.K.M.y.7.>.:.U.R.Y.j.*.S.T.T.A.=.1.t.y.| @ @                       ",
"                @ + q u.y.J.P.K.M.y.w.>.>.U.R.Y.j.&.S.T.T.S.:.<.t.y.{ @ @                       ",
"            + ; Y | [ Q Q x.V.N.6.2.;.%.%.k.z.l.&.} :.z.z.:.$.} ! Q ^ | | 9 + @                 ",
"          + O - q.u.O.k k O.y.r.<.:.&.K $.F F F F K F F F K $.F h a W u.M.q O +                 ",
"          ; - 5 <.e.o.M M o.w.4.1.<.=.L L L L L L L L L } G G J B x ! w.w.w - ;                 ",
"      @ @ [ 7.<.C x _ q.q.! x C q.y.1.` ` ` _ _ ` ` ` ` Q V j B 8.e.o.M M o.7.:.; + @           ",
"      @ @ | y.w.M p Q y.y.Q p M w.y.0.#.( / ( ( ' ' ( / / N k M e.u.O.l l O.u.3.; + @           ",
"      @ @ | y.w.M k Q y.y.Q k M w.y.9.D S S D S v n A +.+.C s M q.u.O.l l O.y.2.; + @           ",
"      @ @ | u.w.M k Q y.y.Q k M w.y.O.l l z z d # O 0 y.y.Q s M q.u.O.l l O.y.2.; + @           ",
"      @ @ | u.q.M k Q y.y.Q k M w.y.O.l z l l d @ + q y.t.Q l B w.y.O.l z O.y.2.; @ @           ",
"          9 q w f.g.d.Q Q d.c.f.` W ..h.g.n $ $     3 q q a.c.f.! W ] g.g.R 0 0                 ",
"          + X : A.U.g.l d h.I.H.N i p.P.L.u + @       + + s.U.H.N s p.I.L.y X +                 ",
"          @ + , Z.K.g.z l h.P.H.N s p.L.L.y + #       @ @ s.K.H.N s p.L.L.u + @                 ",
"                                                                                                ",
"                                                                                                ",
"                                                                                                ",
"                                                                                                ",
"                                                                                                ",
"                                                                                                ",
"                                                                                                ",
"                                                                                                "
};
