/* XPM */
static char *f6728a4294dd4523df024f6f3807cd37l4h0nBpVcmP5xY91[] = {
/* columns rows colors chars-per-pixel */
"48 48 126 2 ",
"   c None",
".  c #0E1816",
"X  c #121917",
"o  c #151B19",
"O  c #171B19",
"+  c #151C19",
"@  c #181B1B",
"#  c #1C1C1B",
"$  c #1D1D1B",
"%  c #1D1D1C",
"&  c #1D1D1D",
"*  c #241E23",
"=  c #281F24",
"-  c #331F2C",
";  c #322124",
":  c #312126",
">  c #392526",
",  c #3E242F",
"<  c #452731",
"1  c #4F2E30",
"2  c #592431",
"3  c #532838",
"4  c #602631",
"5  c #6A2735",
"6  c #6D2736",
"7  c #603737",
"8  c #603837",
"9  c #6E3039",
"0  c #6E3D3D",
"q  c #40204F",
"w  c #46224F",
"e  c #49204F",
"r  c #572744",
"t  c #5F2C41",
"y  c #502251",
"u  c #5E2553",
"i  c #642E45",
"p  c #7A2B40",
"a  c #683449",
"s  c #73304D",
"d  c #652654",
"f  c #622D55",
"g  c #702451",
"h  c #722852",
"j  c #782956",
"k  c #7B3256",
"l  c #AF1743",
"z  c #A31A46",
"x  c #BD1140",
"c  c #B01945",
"v  c #B61A46",
"b  c #BF1F4A",
"n  c #8C2A42",
"m  c #822F4C",
"M  c #9D2E45",
"N  c #843D44",
"B  c #8B2B58",
"V  c #8E2C58",
"C  c #972C58",
"Z  c #853250",
"A  c #8B375C",
"S  c #963355",
"D  c #973355",
"F  c #943358",
"G  c #953358",
"H  c #96365B",
"J  c #90385E",
"K  c #A32F4A",
"L  c #AA304A",
"P  c #A33C57",
"I  c #A7355B",
"U  c #B13156",
"Y  c #B4325A",
"T  c #BC325D",
"R  c #B6385F",
"E  c #C42751",
"W  c #C52B55",
"Q  c #C93156",
"!  c #C13258",
"~  c #CF3158",
"^  c #CB3658",
"/  c #D4335A",
"(  c #D4375F",
")  c #DD365B",
"_  c #E1375F",
"`  c #E53760",
"'  c #EA3760",
"]  c #FC3462",
"[  c #F23962",
"{  c #F53962",
"}  c #FB3B64",
"|  c #FD3964",
" . c #FF3C65",
".. c #FF3D67",
"X. c #8E415D",
"o. c #8C415E",
"O. c #A7465E",
"+. c #AA5554",
"@. c #B55164",
"#. c #BC5768",
"$. c #BD5868",
"%. c #D0475D",
"&. c #D2575A",
"*. c #E84264",
"=. c #E84C65",
"-. c #FC4366",
";. c #E85B68",
":. c #FC506B",
">. c #D86260",
",. c #DE6969",
"<. c #DE6A69",
"1. c #DC716A",
"2. c #FB606F",
"3. c #E46A70",
"4. c #E66C71",
"5. c #FA6D72",
"6. c #FC6D73",
"7. c #FC7574",
"8. c #FC7575",
"9. c #FE7876",
"0. c #FF7A78",
"q. c #FF7B79",
"w. c #EBA078",
"e. c #F8C884",
"r. c #FFE08B",
"t. c #FFEB8E",
/* pixels */
"                                                                                                ",
"                                                                                                ",
"                                                                                                ",
"                                                                                                ",
"                                                                                                ",
"                                                                                                ",
"                                                                                                ",
"                                                                                                ",
"          $ % %       $ $                                             $ #       # # %           ",
"          @ o $       o o                                             o o       # o #           ",
"          7 0 a     1 0 0 1                                         1 0 0 1     a 0 8           ",
"      % % +.q.<.> . 0 7.7.0 o #                                 # o 0 7.7.0 . > <.q.+.% %       ",
"      % % +.q.<.> . 0 7.7.0 o #                                 $ o 0 7.9.a . > <.q.+.% %       ",
"      % % P :.=.r - Z :.:.9 o $                                 @ o 9 :.:.Z : r =.:.P % %       ",
"      % % L  .` d q B | | 6 o @                                 $ o 6 } } V q d `  .L % %       ",
"      % % K  ._ j u C { [ 6 o $                                 $ + 6 [ { C u j `  .K % %       ",
"      % # n / / ` ` ) ~ ~ 2 o #                                 # o 2 ~ ~ ) ` _ / / n # %       ",
"      % $ n ~ / }  .' Q Q 2 o #                                 # o 2 Q Q ' ..} ~ ~ n # %       ",
"      % % p Y T _ ' ( Y Y 2 o &                                 # o 2 Y Y ( ' ` T Y p # %       ",
"      % % i J H T ~ Y J A < o %       % % % % % % % % % %       # o < A J Y ~ ! H J i % %       ",
"      % % i J H ! Q Y J A < % @       % % % % % % % % % %       # % < A J Y Q ! H J i % %       ",
"          , < 3 D I I Y Y m i t ; X 8 +.+.+.+.+.+.+.+.+.+.8 X ; t i m Y Y I I S 3 < ,           ",
"          @ o * k J I Q Q I J k = . 0 q.q.q.q.q.q.q.q.q.9.0 . = k J I Q Q I J k = + @           ",
"          $ @ ; s k D ! ! I H Z < - N 5.6.6.6.6.6.6.6.6.5.N > < F P I ! ! S k s : @ #           ",
"                ; = 3 H H Y ! ! ) ) ' -.-.-.-.-.-.-.-.-.-.;.<.>.*.[ ^ H H 3 = ;                 ",
"                % o < J J Y Q ~ }  .| ] ] | | | ] ] ] | | 2.q.6.-.} ( A A < o #                 ",
"                % @ , i i U ) ) ` ' =.7.7.=.` *.5.q.2.' ' :.2.2.:.:.*.R R 3 o #                 ",
"                      % % L ..{ ~ W 1.r.r.1.E %.e.t.w.Q Q ' | -.6.9.2.} } 6 o #                 ",
"                      % % L ..[ ~ W 1.r.r.1.E %.e.t.w.Q Q ' | -.6.9.2. .} 6 o #                 ",
"                % o 4 L L C B C b b ^ >.>.^ b E &.>.%.b b ~ ) _ :.:.%.B B K L M ; +             ",
"                & @ 6 ....B q y l x x x x x x x x x x x x E ! ~ [  .T w w T ..` - o @           ",
"                : : p ` ` C u g z l c v v v v v v v v v v E ~ / ` ' Y d d Y ' ^ 2 - ;           ",
"          % o ; ^ ` U d d U ' ( g y g H S F H F F F F F F ( | ` j u C ` ` C u j ^ ` M % %       ",
"          @ o > ` ..T w w T ..` d w f A A A J A J J J J J (  .` d q B  . .B q d `  .L % %       ",
"          @ o > ) ..T y y T ..` d w j R R Z i i k k k k k ^  .` d w B } } B w d ` ..L % %       ",
"          @ o > ) ..T y y T  .` d w V } | 6 + = w y y y y T  .` d w B }  .B w d ` ..L % %       ",
"          % o > ) ..T y y T  .` d w V } } 6 o = w y y y y T | ` d w B  .} V w d `  .L % %       ",
"                5 6 N $.$.P B F @.$.O.6 6 1     ; = i $.$.P B F @.$.O.B V O.$.@.p 6 4           ",
"                % . 0 7.q.o.q f 4.q.+.o o       & o 0 7.q.X.q f 4.q.$.w w $.q.<.> . #           ",
"                % o 0 8.8.X.e a 3.q.+.@ $       % o 0 7.7.X.e a 4.q.$.e e $.9.<.; + $           ",
"                                                                                                ",
"                                                                                                ",
"                                                                                                ",
"                                                                                                ",
"                                                                                                ",
"                                                                                                ",
"                                                                                                ",
"                                                                                                "
};
