/* XPM */
static char *d39p6j8_b24b04ee_cb57_455e_9670_6c4c82e6c8f41679398199[] = {
/* columns rows colors chars-per-pixel */
"48 48 210 2 ",
"   c None",
".  c #000101",
"X  c #050A0A",
"o  c #0B0C0C",
"O  c #0B0706",
"+  c #120C0A",
"@  c #021312",
"#  c #0C1313",
"$  c #0E1817",
"%  c #0D1C1B",
"&  c #051B19",
"*  c #131413",
"=  c #141C1B",
"-  c #1B1918",
";  c #12100F",
":  c #2B1C18",
">  c #14201F",
",  c #3B251F",
"<  c #072A27",
"1  c #152321",
"2  c #1B2323",
"3  c #1B2B2B",
"4  c #132927",
"5  c #09312E",
"6  c #053D39",
"7  c #1E3432",
"8  c #1C3937",
"9  c #163735",
"0  c #12302E",
"q  c #222524",
"w  c #242C2C",
"e  c #2A2827",
"r  c #283938",
"t  c #343C3C",
"y  c #333837",
"u  c #342B26",
"i  c #432B25",
"p  c #583B32",
"a  c #06403A",
"s  c #24413E",
"d  c #53423C",
"f  c #66453B",
"g  c #71483C",
"h  c #343E40",
"j  c #074C46",
"k  c #1A4643",
"l  c #1E4846",
"z  c #0F5853",
"x  c #145B57",
"c  c #00564E",
"v  c #2B4D4B",
"b  c #274644",
"n  c #3C4343",
"m  c #3E4B4C",
"M  c #334847",
"N  c #2F5A57",
"B  c #325855",
"V  c #355E5B",
"C  c #375957",
"Z  c #2E504D",
"A  c #00665E",
"S  c #36605D",
"D  c #126B65",
"F  c #12766E",
"G  c #396461",
"H  c #3C6A66",
"J  c #3C6D69",
"K  c #366965",
"L  c #3F706D",
"P  c #3A7B76",
"I  c #414B4C",
"U  c #474C4C",
"Y  c #424F51",
"T  c #465254",
"R  c #475658",
"E  c #4B5656",
"W  c #545B5B",
"Q  c #75564D",
"!  c #61685F",
"~  c #586667",
"^  c #41736F",
"/  c #417672",
"(  c #427A75",
")  c #427E79",
"_  c #5A7775",
"`  c #566F70",
"'  c #616C6B",
"]  c #606768",
"[  c #69787A",
"{  c #6D7271",
"}  c #845749",
"|  c #9C6556",
" . c #9D6859",
".. c #A8705F",
"X. c #91736A",
"o. c #B27967",
"O. c #A0786B",
"+. c #0C867D",
"@. c #31817B",
"#. c #44827D",
"$. c #4E837F",
"%. c #52827F",
"&. c #72807A",
"*. c #B48171",
"=. c #C88874",
"-. c #D58E79",
";. c #C6836F",
":. c #707E81",
">. c #009387",
",. c #338C86",
"<. c #3B9E97",
"1. c #0FA99D",
"2. c #1FB4A9",
"3. c #00BEAF",
"4. c #33B4AB",
"5. c #458682",
"6. c #468B86",
"7. c #478E89",
"8. c #498F8A",
"9. c #4B8A87",
"0. c #47928D",
"q. c #48938E",
"w. c #51918D",
"e. c #499691",
"r. c #539590",
"t. c #579C98",
"y. c #5E8583",
"u. c #698785",
"i. c #728384",
"p. c #758988",
"a. c #77898A",
"s. c #7F8D90",
"d. c #7A9593",
"f. c #719592",
"g. c #57A19C",
"h. c #5CA8A4",
"j. c #5DB0AB",
"k. c #63ABA6",
"l. c #7CABA7",
"z. c #6CB8B4",
"x. c #7EBDB9",
"c. c #77BAB6",
"v. c #70B1AD",
"b. c #10C9BA",
"n. c #3BC0B8",
"m. c #4BC5BE",
"M. c #53C4BB",
"N. c #79C1BD",
"B. c #00D6C5",
"V. c #01FDEB",
"C. c #00F5E3",
"Z. c #0EFEEF",
"A. c #3CFCEE",
"S. c #54CEC8",
"D. c #58D0C9",
"F. c #7FC6C2",
"G. c #68D2CC",
"H. c #79D9D3",
"J. c #7BD1CC",
"K. c #74E6DE",
"L. c #58F9ED",
"P. c #76F5EC",
"I. c #6DFCF2",
"U. c #849294",
"Y. c #8C9B9D",
"T. c #889698",
"R. c #828D81",
"E. c #B5958B",
"W. c #929FA1",
"Q. c #9CABAB",
"!. c #95A5A5",
"~. c #87B9B5",
"^. c #87AFAC",
"/. c #A6ACAA",
"(. c #A1B1AF",
"). c #A2B2B1",
"_. c #A9BAB8",
"`. c #A0AFB0",
"'. c #C79B8D",
"]. c #CCA79A",
"[. c #D1A496",
"{. c #E1A795",
"}. c #D7B1A4",
"|. c #EBB3A2",
" X c #8AC1BD",
".X c #84CBC7",
"XX c #98CDCA",
"oX c #8BD2CE",
"OX c #89D8D3",
"+X c #93D6D2",
"@X c #9CD9D6",
"#X c #97D8D4",
"$X c #91D1CD",
"%X c #A8CBC8",
"&X c #B4CCCA",
"*X c #B1C7C4",
"=X c #ABDEDB",
"-X c #A6DAD6",
";X c #B6DBD8",
":X c #95E0DC",
">X c #A9E1DD",
",X c #B3E0DD",
"<X c #BCE1DE",
"1X c #86FCF4",
"2X c #B3E7E3",
"3X c #C3D8D6",
"4X c #C2C8C2",
"5X c #C1E1DF",
"6X c #C4E5E2",
"7X c #CBE5E3",
/* pixels */
". .           . .             . .                                                               ",
". .           & &             . .                                                               ",
". . . .     . D 2.< .     . . . .                                                               ",
". . . .     . D 2.5 .     . . . .                                                               ",
". . . .     . D 2.5 .     . . . .                                                               ",
". . . .     . D 2.5 .     . . . .                                                               ",
". . . .     . F 4.5 .     . . . .                                                               ",
". o l 9   0 b t.H.K b     6 5 . .                                                               ",
". 3 J.v.E q.D.#X2XH.m.x z 2.+.. .                                                               ",
". w &.i.i.l.OX:X#XD.n.F D D z .                                                                 ",
"    . . . I [ j.S.@.x & . .                                                                     ",
"            . y.OXr .                                                                           ",
"            . p.2Xt .                                       .                                   ",
"            . p.<Xt .                       . . .       . c >.j .       . . .                   ",
"            . 5.OXr .                       . . . .     . F V.A .     . . . .                   ",
"            . P S.9 . . .                   . @ ,.,.X k <.b.V.b.>.6 @ >.+.X .                   ",
"            . y.@Xr . . .                   . > K.P.<.S.1XL.A.Z.V.3.1.C.B.@ .                   ",
"            . p.6Xy O } } o .               . = OX1X1XI.I.P.1XL.L.Z.V.C.B.@ .                   ",
"            . p.<Xt O o.o.* .               . O s Z Z v k b m v b j j j a X .                   ",
"            . 5.G.8 + /.4X^.u.O             . +  .*.E.Q . i | , . g | | } O .                   ",
"            . P D.9 o _.7X2Xl.$ o           . - '.|.|.X.. p -.p . | -.;...+ .                   ",
"            . u.,Xt o ).;X,X%X~._ .             q U {.X.* Q -.p + | ;.i :                       ",
"            . p.6Xt . 2 n &X6X7Xs.# #           . e ].}.E.[.{.=.o.;.o.- .                       ",
"            . u.;Xt . . 2 _.&X2XXXx.C .         . * W X.[.].].[.'.{ U o .                       ",
"            . P D.8 .     = U 3X<X>X_ >         . o m T W W W W W T m o .                       ",
"            . @.G.8 .     . y _.%X=XXX~.V 2 X . o = Y Y I Y Y Y T n t = # # $ % $               ",
"            . p.;Xt .         * ~ 7X5X=XXXx.3 O n m Y Y Y Y Y Y m = o B J J L 6.V $ #           ",
"            . a.6Xt .         . T Q.&X7X2XXXw X m R Y T R T Y T R * X S ( 6.0.e.#.J 7 .         ",
"          1 < f.=XG 0             ; ' Q.&X-Xw O ~ ` R W [ ~ R R T 3 1 S L N K e.5.L 8 .         ",
"        . z 4.n.D.G.N.1 .           w y :.Y.h y :.p.:.:.s.i.:.w . Z L ^ S o 4 0.5.L 8 .         ",
"        . G K.H.H.#X$X2 .         . W Q.h X [ s.T.T.s.U.T.:.~ r 1 K ) / S X 1 5.#.^ 7 .         ",
"        . R d.d.d.8.P % .         . W `.y . [ Y.W.W.Y.W.!.W . b ^ 6.q.( S . 1 ( ( ^ 7 .         ",
"            . . . . O             . W ).] U T.Q.U.U.`.U.W M 4 B ^ 6.q.( V . 4 0.5./ 7 .         ",
"                                  . n ~ ~ ] W.`.W.U.] T 3 N #.^ ^ #.#./ V X 4 0.5./ 7 .         ",
"                                      . . . I W W T w b ^ #.e.6.#.#.#./ S X e R.&.! u .         ",
"                                        . O E ] ~ ` #.5.#.#.#.7.e.e.q.( S . , =.o.} i .         ",
"                                        . o ).7X2X;X~.c.z.g.#.7.e.5.#./ S X : ..} i :           ",
"                                        . o (.7X,X,X@X#XoXz.q.5.#.#.#./ S X + , :               ",
"                                        . o (.6X@X+XoXoXoX Xz.t.5.0.0./ S X .                   ",
"                                        . o (.7X-X#XoXoXoXN.j.r.#.#.#.^ S X .                   ",
"                          O . .         . o ).7X>X-X+XN.k.r.) #.6.5.5./ S X .         . . .     ",
"                      . 2 U.{ . . .     . # ).7X5X,X-X$XN.k.9.k.N.g.0.( S o .     . . . 7 v # . ",
"                      . - 3X!.X .   . . [ Q.&X,X,X=X#X+XoX.XN..XoXr.( 6.#.N s . .   . . v L % . ",
"                      . q 3XQ.# X   o o d.2X<X<X>X@XoXoXoXoXoXz.g.q.6.0.0.( B X .   X X v ^ # . ",
"                      . q *X&X^._ # ` ^.XX>X>X=X+X+XoXoXoXc.h.9.( ( ) ) #.6.#.S s X 8 V G G $ . ",
"                          w W &X%X^.%X6X,X-X#X+XoXoXoXN.h.q.) 5.9.6.6.6.0.0.0.6.P C G K 7 %     ",
"                              w ' &X%XXX XN.~.x.x.v.t.9.J P #.L J J J J J J J J K H r $         ",
"                                  q 2 2 2 2 1 1 1 > % # # # % # # o # # # o # o # # o           "
};
