/* XPM */
static char *pixil_frame_0__1_1679403516[] = {
/* columns rows colors chars-per-pixel */
"48 48 4 1 ",
"  c None",
". c black",
"X c #9C5A3C",
"o c #E5AA7A",
/* pixels */
"                                                ",
"                                                ",
"                                                ",
"    ........................................    ",
"   ..XXXXXXXXXXXXXXXXXXXXXXXXXXXXXXXXXXXXXX..   ",
"   .X......XXXXXXXXXXXXXXXXXXXXXXXXXX......X.   ",
"   .X.oooooo........................oooooo.X.   ",
"   .X.o..XXXXXXXXXXXXXXXXXXXXXXXXXXXXXX..o.X.   ",
"   .X.o.XXXXXXXXXXXXXXXXXXXXXXXXXXXXXXXX.o.X.   ",
"   .X.oX................................Xo.X.   ",
"   .X.oX.XXXXXXXXXXXXXXXXXXXXXXXXXXXXXX.Xo.X.   ",
"   .XXoX.XXXXXXXXXXXXXXXXXXXXXXXXXXXXXX.XoXX.   ",
"   .XX.X.XXXXXXXXXXXXXXXXXXXXXXXXXXXXXX.X.XX.   ",
"   .XX.X.XXXXoXXXXXXXXXXXXXXXXXXXXXXXXX.X.XX.   ",
"   .XX.X.XXXoo......................XXX.X.XX.   ",
"   .XX.X.XXXooXXXXXXXXXXXXXXXXXXXXXXXXX.X.XX.   ",
"   .XX.X.XXXooXXXXXXXXXXXXXXXXXXXXXXXXX.X.XX.   ",
"   .XX.X.XXXooXXXXXXXXXXXXXXXXXXXXXXXXX.X.XX.   ",
"   .XX.X.XXXooXXXXXXXXXXXXXXXXXXXXXXXXX.X.XX.   ",
"   .XX.X.XXXooXXXXXXXXXXXXXXXXXXXXXXXXX.X.XX.   ",
"   .XX.X.XXXooXXXXXXXXXXXXXXXXXXXXXXXXX.X.XX.   ",
"   .XX.X.XXXoo......................XXX.X.XX.   ",
"   .XX.X.XXXoo......................XXX.X.XX.   ",
"   .XX.X.XXXooXXXXXXXXXXXXXXXXXXXXXXXXX.X.XX.   ",
"   .XX.X.XXXooXXXXXXXXXXXXXXXXXXXXXXXXX.X.XX.   ",
"   .XX.X.XXXooXXXXXXXXXXXXXXXXXXXXXXXXX.X.XX.   ",
"   .XX.X.XXXooXXXXXXXXXXXXXXXXXXXXXXXXX.X.XX.   ",
"   .XX.X.XXXooXXXXXXXXXXXXXXXXXXXXXXXXX.X.XX.   ",
"   .XX.X.XXXooXXXXXXXXXXXXXXXXXXXXXXXXX.X.XX.   ",
"   .XX.X.XXXooXXXXXXXXXXXXXXXXXXXXXXXXX.X.XX.   ",
"   .XX.X.XXXoo......................XXX.X.XX.   ",
"   .XX.X.XXXXoXXXXXXXXXXXXXXXXXXXXXXXXX.X.XX.   ",
"   .XX.X.XXXXXXXXXXXXXXXXXXXXXXXXXXXXXX.X.XX.   ",
"   .XX.X.XXXXXXXXXXXXXXXXXXXXXXXXXXXXXX.X.XX.   ",
"   .XX.X.XXXXXXXXXXXXXXXXXXXXXXXXXXXXXX.X.XX.   ",
"   .XX.X.XXXXXXXXXXXXXXXXXXXXXXXXXXXXXX.X.XX.   ",
"   .XXoX.XXXXXXXXXXXXXXXXXXXXXXXXXXXXXX.XoXX.   ",
"   .X.oX.XXXXXXXXXXXXXXXXXXXXXXXXXXXXXX.Xo.X.   ",
"   .X.oX................................Xo.X.   ",
"   .X.o.XXXXXXXXXXXXXXXXXXXXXXXXXXXXXXXX.o.X.   ",
"   .X.o..XXXXXXXXXXXXXXXXXXXXXXXXXXXXXX..o.X.   ",
"   .X.oooooo........................oooooo.X.   ",
"   .X......XXXXXXXXXXXXXXXXXXXXXXXXXX......X.   ",
"   ..XXXXXXXXXXXXXXXXXXXXXXXXXXXXXXXXXXXXXXX.   ",
"    ........................................    ",
"                                                ",
"                                                ",
"                                                "
};
