/* XPM */
static char *exit31679402393[] = {
/* columns rows colors chars-per-pixel */
"48 48 4 1 ",
"  c None",
". c black",
"X c #9C5A3C",
"o c #E5AA7A",
/* pixels */
"                                                ",
"                                                ",
"                                                ",
"    ........................................    ",
"   ..XXXXXXXXXXXXXXXXXXXXXXXXXXXXXXXXXXXXXX..   ",
"   .X......XXXXXXXXXXXXXXXXXXXXXXXXXX......X.   ",
"   .X.oooooo..........................oooo.X.   ",
"   .X.o..................................o.X.   ",
"   .X.o..................................o.X.   ",
"   .X.o..................................o.X.   ",
"   .X.o..................................o.X.   ",
"   .XXo..................................oXX.   ",
"   .XX....................................XX.   ",
"   .XX....o...............................XX.   ",
"   .XX....o...o...........................XX.   ",
"   .XX....o...o...........................XX.   ",
"   .XX....o...o...o.......................XX.   ",
"   .XXooooo...o...o.......................XX.   ",
"   .XX....ooooo...o..o....................XX.   ",
"   .XX....o...ooooo..o....................XX.   ",
"   .XX....o...o...oooo....................XX.   ",
"   .XX....o...o...o..o....................XX.   ",
"   .XX....o...o...o..o....................XX.   ",
"   .XX....o...o...o..o....................XX.   ",
"   .XX....o...o...oooo....................XX.   ",
"   .XX....o...ooooo..o....................XX.   ",
"   .XX....ooooo...o..o....................XX.   ",
"   .XXooooo...o...o..o....................XX.   ",
"   .XX....o...o...o.......................XX.   ",
"   .XX....o...o...o.......................XX.   ",
"   .XX....o...o...........................XX.   ",
"   .XX....o...o...........................XX.   ",
"   .XX....o...............................XX.   ",
"   .XX....o...............................XX.   ",
"   .XX....................................XX.   ",
"   .XX....................................XX.   ",
"   .XXo..................................oXX.   ",
"   .X.o..................................o.X.   ",
"   .X.o..................................o.X.   ",
"   .X.o..................................o.X.   ",
"   .X.o..................................o.X.   ",
"   .X.oooooo........................oooooo.X.   ",
"   .X......XXXXXXXXXXXXXXXXXXXXXXXXXX......X.   ",
"   ..XXXXXXXXXXXXXXXXXXXXXXXXXXXXXXXXXXXXXXX.   ",
"    ........................................    ",
"                                                ",
"                                                ",
"                                                "
};
