/* XPM */
static char *_f56d819a978469be329bdd3ab325a9bjawrigUQcep0CygO[] = {
/* columns rows colors chars-per-pixel */
"48 47 9 1 ",
"  c None",
". c #181425",
"X c #2B2A3F",
"o c #733E39",
"O c #3A4466",
"+ c #C28569",
"@ c #E8B796",
"# c #FFDCC5",
"$ c white",
/* pixels */
"                                                ",
"                                                ",
"                  .........                     ",
"                  .........                     ",
"                  .........                     ",
"               ...######@@@......               ",
"               ...######@@@......               ",
"               ...######@@@......               ",
"            ...#########@@@@@@$$$......         ",
"            ...#########@@@@@@$$$......         ",
"            ...#########@@@@@@$$$......         ",
"         ...#########@@@@@@@@@$$$$$$$$$...      ",
"         ...#########@@@@@@@@@$$$$$$$$$...      ",
"         ...#########@@@@@@@@@$$$$$$$$$...      ",
"         ...$$$$$$@@@@@@$$$$$$$$$$$$$$$...      ",
"         ...$$$$$$@@@@@@$$$$$$$$$$$$$$$...      ",
"         ...$$$$$$@@@@@@$$$$$$$$$$$$$$$...      ",
"         ...$$$...@@@@@@...@@@$$$$$$...         ",
"         ...$$$...@@@@@@...@@@$$$$$$...         ",
"         ...$$$...@@@@@@...@@@$$$$$$...         ",
"         ...$$$...@@@@@@...@@@@@@...            ",
"         ...$$$...@@@@@@...@@@@@@...            ",
"         ...$$$...@@@@@@...@@@@@@...            ",
"            ...$$$$$$$$$$$$@@@@@@......         ",
"            ...$$$$$$$$$$$$@@@@@@......         ",
"            ...$$$$$$$$$$$$@@@@@@......         ",
"         ...OOO$$$@@@@@@$$$@@@OOOXXXOOO...      ",
"         ...OOO$$$@@@@@@$$$@@@OOOXXXOOO...      ",
"         ...OOO$$$@@@@@@$$$@@@OOOXXXOOO...      ",
"         ...OOOOOOOOOXXXOOOOOOOOOXXXOOO...      ",
"         ...OOOOOOOOOXXXOOOOOOOOOXXXOOO...      ",
"         ...OOOOOOOOOXXXOOOOOOOOOXXXOOO...      ",
"         ...OOOOOOOOOXXXOOOOOO+++@@@OOO...      ",
"         ...OOOOOOOOOXXXOOOOOO+++@@@OOO...      ",
"         ...OOOOOOOOOXXXOOOOOO+++@@@OOO...      ",
"         ...XXXXXXoooXXXoooooo+++@@@...         ",
"         ...XXXXXXoooXXXoooooo+++@@@...         ",
"         ...Xo.oXXoooXXXoooooo+++@@@...         ",
"            ...XXX.........XXX......            ",
"            ...XXX.........XXX......            ",
"            ...XXX.........XXX......            ",
"            ...XXX...   ...XXX...               ",
"            ...XXX...   ...XXX...               ",
"            ...XXX...   ...XXX...               ",
"            ...XXX...   ...XXX...               ",
"            ...XXX...   ...XXX...               ",
"            ...XXX...   ...XXX...               "
};
