/* XPM */
static char *e255aa1e6e13475efccdb98251bec182zrlkrgB1fdsGNNWv[] = {
/* columns rows colors chars-per-pixel */
"48 47 10 1 ",
"  c None",
". c #181425",
"X c #3E2731",
"o c #733E39",
"O c #262B44",
"+ c #3A4466",
"@ c #C28569",
"# c #E8B796",
"$ c #FFDCC5",
"% c white",
/* pixels */
"                                                ",
"                                                ",
"                     .........                  ",
"                     .........                  ",
"                     .........                  ",
"               ......###$$$$$$...               ",
"               ......###$$$$$$...               ",
"               ......###$$$$$$...               ",
"         ......%%%######$$$$$$$$$...            ",
"         ......%%%######$$$$$$$$$...            ",
"         ......%%%######$$$$$$$$$...            ",
"      ...%%%%%%%%%#########$$$$$$$$$...         ",
"      ...%%%%%%%%%#########$$$$$$$$$...         ",
"      ...%%%%%%%%%#########$$$$$$$$$...         ",
"      ...%%%%%%%%%%%%%%%######%%%%%%...         ",
"      ...%%%%%%%%%%%%%%%######%%%%%%...         ",
"      ...%%%%%%%%%%%%%%%######%%%%%%...         ",
"         ...%%%%%%###...######...%%%...         ",
"         ...%%%%%%###...######...%%%...         ",
"         ...%%%%%%###...######...%%%...         ",
"            ...######...######...%%%...         ",
"            ...######...######...%%%...         ",
"            ...######...######...%%%...         ",
"         ......######%%%%%%%%%%%%...            ",
"         ......######%%%%%%%%%%%%...            ",
"         ......######%%%%%%%%%%%%...            ",
"      ...+++OOO+++###%%%######%%%+++...         ",
"      ...+++OOO+++###%%%######%%%+++...         ",
"      ...+++OOO+++###%%%######%%%+++...         ",
"      ...+++OOO+++++++++OOO+++++++++...         ",
"      ...+++OOO+++++++++OOO+++++++++...         ",
"      ...+++OOO+++++++++OOO+++++++++...         ",
"      ...+++###@@@++++++OOO+++++++++...         ",
"      ...+++###@@@++++++OOO+++++++++...         ",
"      ...+++###@@@++++++OOO+++++++++...         ",
"         ...###@@@ooooooXXXoooXXXXXX...         ",
"         ...###@@@ooooooXXXoooXXXXXX...         ",
"         ...###@@@ooooooXXXoooXXXXXX...         ",
"            ......OOO.........OOO...            ",
"            ......OOO.........OOO...            ",
"            ......OOO.........OOO...            ",
"               ...OOO...   ...OOO...            ",
"               ...OOO...   ...OOO...            ",
"               ...OOO...   ...OOO...            ",
"               ...OOO...   ...OOO...            ",
"               ...OOO...   ...OOO...            ",
"               ...OOO...   ...OOO...            "
};
