/* XPM */
static char *_eaf3447304f4e26c9a93e4480c31cbc1b2SQ5HTbhgYgDtp[] = {
/* columns rows colors chars-per-pixel */
"48 48 128 2 ",
"   c None",
".  c #130E1E",
"X  c #14101F",
"o  c #161121",
"O  c #181424",
"+  c #1A1628",
"@  c #1D192B",
"#  c #1F1C32",
"$  c #221F34",
"%  c #232136",
"&  c #23233A",
"*  c #29283F",
"=  c #262741",
"-  c #272842",
";  c #2B2B43",
":  c #2B2D4A",
">  c #302F47",
",  c #2D304F",
"<  c #323047",
"1  c #333249",
"2  c #3D3B4E",
"3  c #2F3352",
"4  c #333553",
"5  c #383956",
"6  c #333759",
"7  c #363A5C",
"8  c #3B3C59",
"9  c #373D61",
"0  c #393F64",
"q  c #3C4164",
"w  c #3B436B",
"e  c #3E4771",
"r  c #3F4872",
"t  c #444766",
"y  c #464866",
"u  c #40476E",
"i  c #474969",
"p  c #484A6A",
"a  c #414A74",
"s  c #4C4F71",
"d  c #464E79",
"f  c #4C5073",
"g  c #4C547E",
"h  c #525471",
"j  c #5D5F79",
"k  c #66677F",
"l  c #4D5680",
"z  c #4F5883",
"x  c #535B83",
"c  c #5D6183",
"v  c #5B628C",
"b  c #5D6691",
"n  c #606487",
"m  c #696A81",
"M  c #60668B",
"N  c #656C96",
"B  c #686F97",
"V  c #676E98",
"C  c #686F99",
"Z  c #697097",
"A  c #6A719B",
"S  c #757A9D",
"D  c #767CA2",
"F  c #797FA4",
"G  c #7980A5",
"H  c #7B81A8",
"J  c #8387A6",
"K  c #878DAF",
"L  c #898EAF",
"P  c #8F92AD",
"I  c #888EB1",
"U  c #8A90B0",
"Y  c #8B90B1",
"T  c #8B91B1",
"R  c #8B91B2",
"E  c #8C90B2",
"W  c #8C92B3",
"Q  c #8D92B3",
"!  c #8D93B6",
"~  c #8E94B6",
"^  c #9396B0",
"/  c #9497B1",
"(  c #9498B7",
")  c #9499B8",
"_  c #959AB9",
"`  c #969BB9",
"'  c #959BBB",
"]  c #979BBA",
"[  c #979CBA",
"{  c #979CBB",
"}  c #979CBC",
"|  c #989CBA",
" . c #989DBA",
".. c #989CBB",
"X. c #989DBC",
"o. c #9CA1BD",
"O. c #9DA1BE",
"+. c #9DA1BF",
"@. c #9DA2BE",
"#. c #9DA2BF",
"$. c #9EA2BE",
"%. c #9EA3BE",
"&. c #9EA3BF",
"*. c #9FA3BF",
"=. c #9EA2C0",
"-. c #9EA3C0",
";. c #9FA3C0",
":. c #9FA4C0",
">. c #A1A5C1",
",. c #A2A6C0",
"<. c #A2A6C1",
"1. c #A0A5C2",
"2. c #A1A6C2",
"3. c #A2A6C2",
"4. c #A3A7C2",
"5. c #A3A7C3",
"6. c #A4A8C2",
"7. c #A4A8C3",
"8. c #A5A9C3",
"9. c #A6A9C3",
"0. c #A5A9C4",
"q. c #A6AAC4",
"w. c #A7ABC4",
"e. c #A6AAC5",
"r. c #A6AAC6",
"t. c #A7ABC6",
"y. c #A8ACC7",
"u. c #A9ADC8",
/* pixels */
"                          . . . . . . . . . . . . . X . . . . . . . X                           ",
"                          @ @ @ @ @ @ @ @ @ @ @ @ @ @ # @ @ @ + @ @ @                           ",
"                        % * ; > 2 2 2 2 2 2 2 5 2 2 2 2 2 2 2 2 > ; - %                         ",
"                      @ > 8 y h j k m k m m k m k k m m k k k j h i 8 - @                       ",
"                    O % 4 f M S J P / / / / ^ ^ ^ / ^ / / / ^ J S M p 2 % O                     ",
"                  # & < y c D I | ,.t.t.9.9.9.7.9.9.9.t.w.w.8.| I F M t > % $                   ",
"                @ ; 5 p j S U } 2.t.u.u.u.u.u.u.u.u.u.y.y.y.t.2.| U S c p 5 ; @                 ",
"              O % 5 f M S I | :.<.<.<.9.7.7.7.7.7.5.<.8.8.8.<.2.:.| L S M s 4 & O               ",
"            @ % > y c D I { 2.8.7.9.9.<.9.<.<.2.2.<.9.2.<.<.9.7.8.2.| I D v y > % @             ",
"          # ; 5 y c S U ] &.2.8.7.<.2.2.2.2.9.9.2.8.<.2.9.2.2.7.8.8.&.] L S j y 5 - $           ",
"        O % 5 f M S I { &.2.2.8.<.9.<.9.<.9.2.<.<.<.9.9.9.<.<.9.8.<.2.=.| L S M f 5 & O         ",
"      @ $ < i M D I | 2.8.8.4.4.2.2.2.9.<.2.9.<.8.<.2.<.2.2.9.<.2.2.8.5.2.| I D M i < $ @       ",
"    % ; 5 y c S I ] =.8.8.4.4.4.8.8.<.<.<.9.2.2.2.9.9.<.<.<.9.2.2.<.9.9.8.=.] I S j i 5 ; %     ",
". @ * 8 h n S L { =.2.8.4.8.4.4.2.<.2.9.2.9.<.9.<.<.2.2.9.2.9.<.9.<.9.9.8.2.=.| L S c h 8 * @ . ",
". @ ; t c S K ] 2.8.4.4.4.4.4.4.<.2.<.9.2.<.9.<.9.2.<.9.2.9.2.<.8.<.<.2.2.2.8.:.] L S v t ; @ o ",
". @ ; p N F ! =.8.8.8.2.4.4.4.4.9.9.<.2.9.<.2.2.9.<.2.9.<.<.2.9.<.<.8.8.<.8.t.8.&.! F N p ; @ . ",
". @ ; y N F ! &.9.9.9.2.<.9.8.<.2.2.<.9.2.<.9.9.2.<.9.2.<.<.9.2.8.<.<.7.<.9.w.w.&.! F N i ; @ . ",
"X @ ; t v D I | 2.8.2.2.7.<.<.<.<.9.<.2.9.<.2.<.2.9.<.2.9.2.9.<.<.<.9.<.2.7.<.2.] I D v t ; + . ",
"X @ * q x A G W | &.:.9.9.<.<.8.9.<.9.2.9.2.<.2.<.<.9.9.2.9.2.<.<.8.8.<.9.2.X.] W H B x q = + X ",
"o O * 7 f v A G K ] =.9.9.9.<.8.2.2.9.<.<.2.9.9.9.2.2.<.<.<.2.9.<.<.8.8.7.&.] I H A v f 7 = + o ",
"o @ & 3 u l v V D K { :.<.8.<.<.<.9.9.2.<.9.2.<.2.9.9.<.9.9.2.<.2.<.8.8.2.| I D B v l e 4 & + o ",
"o + & 3 w d z v V G U | &.:.<.8.8.2.<.2.<.2.9.<.<.<.2.2.2.<.<.9.8.2.,.%.| W G A x x d w 3 $ + o ",
"o + $ 3 w a g g v B G L ( &.8.8.7.<.9.9.9.9.2.2.9.2.<.9.2.9.9.7.8.8.&.( L F B x x l a w 3 $ @ o ",
"o + & 3 w a a d g v B F K ] 2.8.7.<.2.<.2.<.<.9.9.<.2.9.<.<.2.7.8.2.( L D B v l d a r w 3 & + o ",
"o + & 3 w r a r d l v A G W { &.:.4.4.4.4.4.2.2.2.<.4.4.4.4.4.:.&.| U F B v l d r a r w 3 & + X ",
"X + & 3 w r a r a d l x B F L ( &.4.e.9.9.9.9.9.9.9.8.8.q.q.4.&.] I G B x l d a r a r w 3 & + o ",
"o O & 3 w a a a a a d g v B D K ] :.4.9.7.7.9.5.9.4.4.4.8.8.2.] K D V v l d a a a a a w 3 & + o ",
"o + & 3 w r d r a e a d g v B F U { &.%.+.+.=.X.+.+.+.+.%.&.{ L D V v l d a a a a a a w 3 & + o ",
"o + & 3 w a a r a r a a d l v V G K W W W W W W W W U W W U I G V v l d a r r a r d r e 3 & + o ",
"o + & 3 w r d a a w e a a d g v Z D G G F D D F D F F F G F D Z v l d a a r r a a a r w 3 & + o ",
"o + & 3 e r r r r a a r a a d z v V A A C A A A A A A A A A V v l d a r r a a r r r r w 3 & + o ",
"o + & 3 w r l r a r a a r e a l v N V C V V V V V V V V V V N v l a e r a r r a r d a w 3 & + o ",
"o + & 3 w r d r r a a r r r a z v V C C C C V V C V V V C C V v z a e a a r a a r a d 0 6 & + o ",
"o + & 3 w e r r a r r r r r a z x V C A C C C C C C C C A C V x l d e a r a a r a a r 0 3 & + o ",
"o + # , 6 0 w e a r r r r r a z v V A C C C C C C C C C C C V v l a e a a r a a r 0 0 6 , $ + o ",
"    # & = , 7 e d r d r r r a z v V C A C C C C C C C C C C V b l d e e a a a a e 9 3 = & #     ",
"      @ # & 3 q r a a r r r a z v C A C C C C C C C C C C C V x l d a 0 a a a a 0 3 & # @       ",
"        + # : 6 w w r a r r a l x V C A C C C C C C C C C C V b l a e a a a 0 0 6 : # O         ",
"          @ & - 3 7 w r a a a z v V C A C C C C C C C C C C C M l a a a a 0 0 3 - & #           ",
"            @ # & , w r r r a z v V A C C C C C C C C C C A V x l a a a r 0 3 & # @             ",
"              O # - 6 0 w e a l v V C A A A A A A A A A A A V b z a e w 0 6 - # +               ",
"                @ & : 3 7 w a z b C A A A A A A A A A A A A C M z r w 7 3 : & @                 ",
"                  @ # & : 9 a z M V A A A A A C A A A A A A B v z a 9 : & # @                   ",
"                    O # = 6 w g x M M M N M b M M b M b M N v g g e 6 = @ +                     ",
"                      + & : 3 7 q y p y i y y y y p p p p p t t 7 4 : & +                       ",
"                        # % & * * ; > ; ; > ; > : ; ; ; ; ; ; ; & & # #                         ",
"                          + + + @ @ @ @ @ @ @ @ @ @ @ @ @ @ @ + @ + +                           ",
"                          o o X X . . . . . X X . . . . X X . o o o o                           "
};
