/* XPM */
static char *bceee03ee3ba4729b26c175098754cacNSIrFvhyyhR9vvGq[] = {
/* columns rows colors chars-per-pixel */
"48 48 4 1 ",
"  c #9ED548",
". c #C1DF5A",
"X c #83C23A",
"o c white",
/* pixels */
"     ..XX..XX          ......        ..XX..XX   ",
"     ..XX..XX          ......        ..XX..XX   ",
"       XX        ..  ..XX..XXXX        XX       ",
"       XX        ..  ..XX..XXXX        XX       ",
" ..              XX..XX      ..  ..             ",
" ..              XX..XX      ..  ..             ",
".XX      ....                XX..XX      ....   ",
".XX      ....                XX..XX      ....   ",
"       ....                            ....     ",
"       ....                            ....     ",
"   ..  ..    ..      ..            ..  ..    .. ",
"   ..  ..    ..      ..            ..  ..    .. ",
"   ..XX..XX    ..  ..              ..XX..XX    .",
"   ..XX..XX    ..  ..              ..XX..XX    .",
".        XX  XX..XX..      ..  ..        XX  XX.",
".        XX  XX..XX..      ..  ..        XX  XX.",
"X                XX        XX..XX               ",
"X                XX        XX..XX               ",
" ....  ..                        ....  ..       ",
" ....  ..                        ....  ..       ",
" XX....XX                        XX....XX       ",
" XX....XX                        XX....XX       ",
"   XXXX        ....  ....          XXXX        .",
"   XXXX        ....  ....          XXXX        .",
"                 ......                         ",
"                 ......                         ",
"   ..          XXXX..XXXX          ..          X",
"   ..          XXXX..XXXX          ..          X",
"   ....    ..                      ....    ..   ",
"   ....    ..                      ....    ..   ",
"     ..  ..          ....  ....      ..  ..     ",
"     ..  ..          ....  ....      ..  ..     ",
"     ..XX..XX          ......        ..XX..XX   ",
"     ..XX..XX          ......        ..XX..XX   ",
"       XX        ..  ..XX..XXXX        XX       ",
"       XX        ..  ..XX..XXXX        XX       ",
" ..              XX..XX      ..  ..             ",
" ..              XX..XX      ..  ..             ",
".XX      ....                XX..XX      ....   ",
".XX      ....                XX..XX      ....   ",
"       ....                            ....     ",
"       ....                            ....     ",
"   ..  ..    ..      ..            ..  ..    .. ",
"   ..  ..    ..      ..            ..  ..    .. ",
"   ..XX..XX    ..  ..              ..XX..XX    .",
"   ..XX..XX    ..  ..              ..XX..XX    .",
".        XX  XX..XX..      ..  ..        XX  XX.",
".        XX  XX..XX..      ..  ..        XX  XX."
};
